<svg xmlns="http://www.w3.org/2000/svg" version="1.1" xmlns:xlink="http://www.w3.org/1999/xlink" xmlns:svgjs="http://svgjs.dev/svgjs" width="128" height="128" viewBox="0 0 128 128"><g transform="matrix(0.8046875,0,0,0.8046875,12.333870967741937,14.621922779375865)"><svg viewBox="0 0 155 150" data-background-color="#ffffff" preserveAspectRatio="xMidYMid meet" height="123" width="128" xmlns="http://www.w3.org/2000/svg" xmlns:xlink="http://www.w3.org/1999/xlink"><g id="tight-bounds" transform="matrix(1,0,0,1,0.25,-0.16701534170152854)"><svg viewBox="0 0 154.5 150.33403068340306" height="150.33403068340306" width="154.5"><g><svg viewBox="0 0 154.5 150.33403068340306" height="150.33403068340306" width="154.5"><g><svg viewBox="0 0 154.5 150.33403068340306" height="150.33403068340306" width="154.5"><g id="textblocktransform"><svg viewBox="0 0 154.5 150.33403068340306" height="150.33403068340306" width="154.5" id="textblock"><g><svg viewBox="0 0 154.5 150.33403068340306" height="150.33403068340306" width="154.5"><g transform="matrix(1,0,0,1,0,0)"><svg width="154.5" viewBox="5.42 -38.16 52.51 51.099999999999994" height="150.33403068340306" data-palette-color="#ca3433"><path d="M5.42 0L5.42-38.16 24.83-38.16Q29.22-38.16 32.45-37.24 35.67-36.33 37.79-34.59 39.92-32.86 40.95-30.37 41.99-27.88 41.99-24.73L41.99-24.73Q41.99-22.61 41.48-20.69 40.97-18.77 39.9-17.16 38.84-15.55 37.23-14.29 35.62-13.04 33.45-12.21L33.45-12.21 41.75 0 32.28 0 25.1-10.84 24.88-10.84 13.16-10.86 13.16 0 5.42 0ZM13.16-17.55L25.02-17.55Q27.22-17.55 28.87-18.07 30.52-18.58 31.63-19.51 32.74-20.43 33.29-21.77 33.84-23.1 33.84-24.73L33.84-24.73Q33.84-27.93 31.64-29.68 29.44-31.42 25.02-31.42L25.02-31.42 13.16-31.42 13.16-17.55ZM46.8 12.94L43.8 6.32Q45.48 5.3 46.69 4.17 47.9 3.05 48.68 1.7 49.46 0.34 49.83-1.33 50.19-3 50.19-5.13L50.19-5.13 50.19-38.16 57.93-38.16 57.93-6.52Q57.93-3.98 57.71-1.89 57.49 0.2 56.99 1.94 56.49 3.69 55.65 5.15 54.81 6.62 53.57 7.93 52.34 9.25 50.67 10.47 49 11.69 46.8 12.94L46.8 12.94Z" opacity="1" transform="matrix(1,0,0,1,0,0)" fill="#ca3433" class="undefined-text-0" data-fill-palette-color="primary" id="text-0"></path></svg></g></svg></g></svg></g></svg></g><g></g></svg></g><defs></defs></svg><rect width="154.5" height="150.33403068340306" fill="none" stroke="none" visibility="hidden"></rect></g></svg></g></svg>